<svg xmlns="http://www.w3.org/2000/svg" viewBox="0 0 1000 550"><defs><linearGradient id="sky" x2="1" y2="1"><stop stop-color="#e4f4e7"/><stop offset="1" stop-color="#f8fcff"/></linearGradient><linearGradient id="glass" x2="1" y2="1"><stop stop-color="#6eb4c7"/><stop offset="1" stop-color="#175e76"/></linearGradient><linearGradient id="leaf" x2="1" y2="1"><stop stop-color="#73c6a0"/><stop offset="1" stop-color="#138463"/></linearGradient></defs><rect width="1000" height="550" fill="url(#sky)"/><circle cx="815" cy="112" r="62" fill="#fff6c6" opacity=".85"/><path d="M0 410 Q220 330 490 405 T1000 380 V550 H0" fill="#a7dfcb"/><path d="M0 462 Q290 399 580 464 T1000 442 V550 H0" fill="#5cb896" opacity=".65"/><rect x="95" y="245" width="810" height="210" rx="18" fill="#d2e7e2"/><rect x="170" y="165" width="640" height="95" rx="16" fill="#65a6ad"/><circle cx="310" cy="248" r="62" fill="#e6ad80"/><path d="M230 250 Q310 175 390 250" fill="#f6c949"/><rect x="206" y="312" width="208" height="182" rx="75" fill="#1c6f78"/><path d="M258 348 L310 385 L362 348" stroke="#e9f9f2" stroke-width="16" fill="none"/><circle cx="540" cy="248" r="62" fill="#e6ad80"/><path d="M460 250 Q540 175 620 250" fill="#f6c949"/><rect x="436" y="312" width="208" height="182" rx="75" fill="#257e69"/><path d="M488 348 L540 385 L592 348" stroke="#e9f9f2" stroke-width="16" fill="none"/></svg>